# xmcd
#
# Track frame offsets: 
#        150
#        30230
#        51518
#        77065
#        112715
#        135134
#        147548
#        171075
#        198806
#        240920
#        278034
#
# Disc length: 4089 seconds
#
# Revision: 0
# Processed by: cddbd v1.5.2PL0 Copyright (c) Steve Scherf et al.
# Submitted via: ExactAudioCopy v1.0b3
#
DISCID=830ff70b
DTITLE=Various Artist - Svenska Skratt [CD 6)
DYEAR=2011
DGENRE=Comedy
TTITLE0=Lars Ekborg and Beppe Wolgers - Ridåöverhalningen
TTITLE1=Lars Ekborg - Sunt Och Friskt
TTITLE2=Lars Ekborg and Inga Gill - Profilen
TTITLE3=Lars Ekborg, Stig Järrel, Sven Holmberg - Förälskad I Stockhol
TTITLE3=mstrafiken
TTITLE4=Lars Ekborg - Ett Ord Till De Unga
TTITLE5=Lars Ekborg - Tummen
TTITLE6=Lars Ekborg - Det Stora Eländet
TTITLE7=Lars Ekborg and Cilla Ingvar - Lyckan
TTITLE8=Lars Ekborg and Beppe Wolgers - Amatörkirurgen
TTITLE9=Lars Ekborg - Poker Med Joakim
TTITLE10=Lars Ekborg and Cilla Ingvar - Viskskvaller
EXTD=
EXTT0=
EXTT1=
EXTT2=
EXTT3=
EXTT4=
EXTT5=
EXTT6=
EXTT7=
EXTT8=
EXTT9=
EXTT10=
PLAYORDER=
